# xmcd
#
# Track frame offsets: 
#        150
#        2609
#        12974
#        30427
#        45873
#        62705
#        74220
#        89524
#        104901
#        122809
#        141035
#        157629
#        174930
#        190277
#        192388
#        210134
#        227260
#        229686
#        249776
#        265343
#        278390
#
# Disc length: 3779 seconds
#
# Revision: 0
# Processed by: cddbd v1.5.2PL0 Copyright (c) Steve Scherf et al.
# Submitted via: ExactAudioCopyFreeDBPlugin 1.0
#
DISCID=090ec115
DTITLE=K. Michelle - Kimberly: The People I Used to Know
DYEAR=2017
DGENRE=Soul
TTITLE0=Welcome to the People I Used to Know
TTITLE1=Alert
TTITLE2=God, Love, Sex and Drugs
TTITLE3=Make This Song Cry
TTITLE4=Crazy Like You
TTITLE5=Kim K
TTITLE6=Takes Two (feat. Jeremih)
TTITLE7=Rounds
TTITLE8=Either Way (feat. Chris Brown)
TTITLE9=Birthday
TTITLE10=Fuck Your Man (Interlude)
TTITLE11=No Not You
TTITLE12=Giving Up on Love
TTITLE13=Help Me Grow (Interlude)
TTITLE14=Heaven
TTITLE15=Run Don't Walk
TTITLE16=Industry Suicide (Interlude)
TTITLE17=Talk to God
TTITLE18=Brain on Love
TTITLE19=Woman of My Word
TTITLE20=Outro (performed by Princess Nokia)
EXTD=
EXTT0=
EXTT1=
EXTT2=
EXTT3=
EXTT4=
EXTT5=
EXTT6=
EXTT7=
EXTT8=
EXTT9=
EXTT10=
EXTT11=
EXTT12=
EXTT13=
EXTT14=
EXTT15=
EXTT16=
EXTT17=
EXTT18=
EXTT19=
EXTT20=
PLAYORDER=
